<?xml version="1.0" encoding="utf-8"?>
<!-- Generator: Adobe Illustrator 21.0.0, SVG Export Plug-In . SVG Version: 6.00 Build 0)  -->
<svg version="1.1" id="icons" xmlns="http://www.w3.org/2000/svg" xmlns:xlink="http://www.w3.org/1999/xlink" x="0px" y="0px"
	 viewBox="0 0 384 384" style="enable-background:new 0 0 384 384;" xml:space="preserve">
<style type="text/css">
	.st0{fill:#FFFFFF;}
</style>
<path id="account" class="st0" d="M192,0C86,0,0,86,0,192s86,192,192,192s192-86,192-192S298,0,192,0z M86,86
	c28.3-28.3,66-43.9,106-43.9S269.7,57.7,298,86c28.3,28.3,43.9,66,43.9,106c0,26.4-6.8,51.7-19.4,74c-12.7-12.8-28.6-23.3-46.7-31
	c8.4-15.6,13.2-33.7,13.2-53c0-32.3-9.8-59.2-28.3-78.1c-17.2-17.5-41.6-27.2-68.7-27.2s-51.5,9.7-68.7,27.2
	C104.8,122.8,95,149.7,95,182c0,19.2,4.8,37.3,13.1,52.8C90,242.5,74,252.9,61.3,265.7c-12.6-22.2-19.3-47.4-19.3-73.7
	C42.1,151.9,57.7,114.3,86,86z M137,182c0-40.2,20.1-63.3,55-63.3s55,23.1,55,63.3c0,34.9-24.7,63.3-55,63.3S137,216.9,137,182z
	 M87.3,299.3c1.4-1.6,3-3.3,4.9-5.1c11.7-11.3,26.9-19.8,45.1-25.4c15.6,11.6,34.4,18.4,54.7,18.4c20.2,0,39-6.8,54.6-18.3
	c26.4,8.1,41.7,21.2,49.9,30.6c-28.1,27.4-65.1,42.4-104.5,42.4C152.6,341.9,115.5,326.8,87.3,299.3z"/>
</svg>
