<?xml version="1.0" encoding="utf-8"?>
<!-- Generator: Adobe Illustrator 23.0.5, SVG Export Plug-In . SVG Version: 6.00 Build 0)  -->
<svg version="1.1" id="Layer_2" xmlns="http://www.w3.org/2000/svg" xmlns:xlink="http://www.w3.org/1999/xlink" x="0px" y="0px"
	 viewBox="0 0 384 384" style="enable-background:new 0 0 384 384;" xml:space="preserve">
<style type="text/css">
	.st0{fill:#42A5F5;}
</style>
<path class="st0" d="M299.8688965,197.5991211C309.2000122,180.9190063,314.0674133,162.1126099,314,143c0-70-43.4283447-105-97-105
	s-97,35-97,105c-0.067482,19.1287231,4.8083801,37.9504089,14.1549072,54.6403809
	C89.2226563,218.8474121,68.4660568,274.09021,50,346l334-0.0964355
	C365.5390625,274.013916,344.7792969,218.8364258,299.8688965,197.5991211z M178.0637207,93.9938965
	C189.6651611,82.4277267,205.6410065,80,217,80s27.3348389,2.4277267,38.9362793,13.9938965
	C269.2130127,107.2301025,272,127.9494629,272,143c0,34.7382813-24.6730042,63-55,63s-55-28.2617188-55-63
	C162,115.7322998,170.7354736,101.2995605,178.0637207,93.9938965z M128.7593994,256.5493164
	c10.1036377-14.295166,21.1329346-22.1210938,36.0562744-25.0251465
	c31.352066,21.9882507,73.1230164,21.9658966,104.4515381-0.0559082
	c14.8673096,2.9362793,25.869751,10.7570801,35.944458,24.9881592
	c8.9063721,12.5805664,16.3375244,29.3043213,22.7064209,47.4633789l-221.8294678,0.0639954
	C112.4510498,285.8366699,119.87146,269.1243896,128.7593994,256.5493164z"/>
<path class="st0" d="M32.4565392,261H0v42h18.2427998C22.95117,287.0407715,27.6054707,273.2824707,32.4565392,261z"/>
<path class="st0" d="M82.9628906,181.9945068C82.0220032,178.3674316,81.2279968,174.6973877,80.5518799,171H0v42h56.8131104
	C64.2091751,201.6196442,72.9933243,191.2043915,82.9628906,181.9945068z"/>
<path class="st0" d="M88.7985764,81H0v42h78.9995117C80.3876266,108.6271896,83.6829224,94.5031357,88.7985764,81z"/>
</svg>
