<?xml version="1.0" encoding="utf-8"?>
<!-- Generator: Adobe Illustrator 23.0.1, SVG Export Plug-In . SVG Version: 6.00 Build 0)  -->
<svg version="1.1" id="Layer_1" xmlns="http://www.w3.org/2000/svg" xmlns:xlink="http://www.w3.org/1999/xlink" x="0px" y="0px"
	 viewBox="0 0 34 34" style="enable-background:new 0 0 34 34;" xml:space="preserve">
<style type="text/css">
	.st0{fill:#FFFFFF;}
</style>
<g>
	<path class="st0" d="M15.6,3C14.8,1.2,13,0,11,0S7.2,1.2,6.4,3H0v4h6.4C7.2,8.8,9,10,11,10s3.8-1.2,4.6-3H34V3H15.6z M11,6
		c-0.6,0-1-0.4-1-1s0.4-1,1-1s1,0.4,1,1S11.6,6,11,6z"/>
	<path class="st0" d="M23,12c-2,0-3.8,1.2-4.6,3H0v4h18.4c0.8,1.8,2.5,3,4.6,3s3.8-1.2,4.6-3H34v-4h-6.4C26.8,13.2,25,12,23,12z
		 M23,18c-0.6,0-1-0.4-1-1s0.4-1,1-1s1,0.4,1,1S23.6,18,23,18z"/>
	<path class="st0" d="M11,24c-2,0-3.8,1.2-4.6,3H0v4h6.4c0.8,1.8,2.5,3,4.6,3s3.8-1.2,4.6-3H34v-4H15.6C14.8,25.2,13,24,11,24z
		 M11,30c-0.6,0-1-0.4-1-1s0.4-1,1-1s1,0.4,1,1S11.6,30,11,30z"/>
</g>
</svg>
