<?xml version="1.0" encoding="utf-8"?>
<!-- Generator: Adobe Illustrator 21.0.0, SVG Export Plug-In . SVG Version: 6.00 Build 0)  -->
<svg version="1.1" id="icons" xmlns="http://www.w3.org/2000/svg" xmlns:xlink="http://www.w3.org/1999/xlink" x="0px" y="0px"
	 viewBox="0 0 384 384" style="enable-background:new 0 0 384 384;" xml:space="preserve">
<style type="text/css">
	.st0{fill:#FFFFFF;}
</style>
<g>
	<path class="st0" d="M192,42.1c40.1,0,77.7,15.6,106,43.9c28.3,28.3,43.9,66,43.9,106s-15.6,77.7-43.9,106
		c-28.3,28.3-66,43.9-106,43.9S114.3,326.3,86,298c-28.3-28.3-43.9-66-43.9-106S57.7,114.3,86,86S151.9,42.1,192,42.1 M192,0
		C86,0,0,86,0,192s86,192,192,192s192-86,192-192S298,0,192,0L192,0z"/>
</g>
<g>
	<rect x="171" y="267" class="st0" width="42" height="42"/>
</g>
<g>
	<path class="st0" d="M213,250h-42v-56.1h21c20.3,0,36.8-16.5,36.8-36.8s-16.5-36.8-36.8-36.8s-36.8,16.5-36.8,36.8h-42
		c0-43.5,35.4-78.8,78.8-78.8s78.8,35.4,78.8,78.8c0,36.2-24.5,66.8-57.8,76V250z"/>
</g>
</svg>
