<?xml version="1.0" encoding="utf-8"?>
<!-- Generator: Adobe Illustrator 21.0.0, SVG Export Plug-In . SVG Version: 6.00 Build 0)  -->
<svg version="1.1" id="Layer_1" xmlns="http://www.w3.org/2000/svg" xmlns:xlink="http://www.w3.org/1999/xlink" x="0px" y="0px"
	 viewBox="0 0 32 32" style="enable-background:new 0 0 32 32;" xml:space="preserve">
<style type="text/css">
	.st0{fill:#FFFFFF;}
</style>
<g>
	<path class="st0" d="M9.2,21.2H6.4l-4.5-7.8H1.8c0.1,1.4,0.1,2.4,0.1,3v4.9H0V10.8h2.8l4.5,7.7h0c-0.1-1.3-0.1-2.3-0.1-2.8v-4.9h2
		V21.2z"/>
	<path class="st0" d="M17.4,21.2h-6V10.8h6v1.8h-3.8v2.3h3.5v1.8h-3.5v2.7h3.8V21.2z"/>
	<path class="st0" d="M29.4,21.2h-2.5l-1.4-5.4c-0.1-0.2-0.1-0.6-0.3-1.2c-0.1-0.6-0.2-1-0.2-1.2c0,0.3-0.1,0.7-0.2,1.2
		c-0.1,0.6-0.2,1-0.3,1.2l-1.4,5.4h-2.5L18,10.8h2.2l1.3,5.6c0.2,1,0.4,1.9,0.5,2.7c0-0.3,0.1-0.7,0.2-1.2c0.1-0.6,0.2-1,0.3-1.3
		l1.5-5.8H26l1.5,5.8c0.1,0.3,0.1,0.7,0.2,1.2c0.1,0.5,0.2,1,0.2,1.4c0-0.4,0.1-0.8,0.2-1.4c0.1-0.5,0.2-1,0.3-1.3l1.3-5.6H32
		L29.4,21.2z"/>
</g>
</svg>
