<svg id="a22f0928-30d8-4699-903e-959bbb5157b6" data-name="Layer 1" xmlns="http://www.w3.org/2000/svg" viewBox="0 0 384.00001 384.00001">
  <defs>
    <style>
      .b2acf0b3-a12d-45f7-a117-55ab824eefa9 {
        fill: #42a5f5;
      }
    </style>
  </defs>
  <title>settings</title>
  <g id="aa4a36a4-78af-43f5-b1fa-6aab82396505" data-name="settings">
    <path class="b2acf0b3-a12d-45f7-a117-55ab824eefa9" d="M384,213.33334V170.66667H318.08a127.9996,127.9996,0,0,0-21.33334-52.69334l46.50668-46.50667L312.74667,41.17333,266.02668,87.68a128.00008,128.00008,0,0,0-52.69334-21.33334V0H170.66667V65.92a128,128,0,0,0-52.69334,21.33333l-46.72-46.08-30.08,30.08,46.50668,46.72a128.00014,128.00014,0,0,0-21.33334,52.69334H0v42.66667H65.92a127.99993,127.99993,0,0,0,21.33333,52.69334l-46.08,46.72,30.08,30.08L117.76,296.32a127.99957,127.99957,0,0,0,52.69335,21.33333V384H213.12V318.08a127.99949,127.99949,0,0,0,52.69334-21.33334L312.32,343.25335l30.08-30.08-46.50668-46.50667a127.99973,127.99973,0,0,0,21.33334-52.69334H384ZM102.61334,192A89.38668,89.38668,0,1,1,192,281.38669,89.38664,89.38664,0,0,1,102.61334,192Z" transform="translate(0 0)"/>
    <circle class="b2acf0b3-a12d-45f7-a117-55ab824eefa9" cx="192.00001" cy="192.00001" r="40.99999"/>
  </g>
</svg>
