<?xml version="1.0" encoding="utf-8"?>
<!-- Generator: Adobe Illustrator 23.0.1, SVG Export Plug-In . SVG Version: 6.00 Build 0)  -->
<svg version="1.1" id="Layer_1" xmlns="http://www.w3.org/2000/svg" xmlns:xlink="http://www.w3.org/1999/xlink" x="0px" y="0px"
	 viewBox="0 0 24 24" style="enable-background:new 0 0 24 24;" xml:space="preserve">
<style type="text/css">
	.st0{fill:#FFFFFF;}
</style>
<path class="st0" d="M24,11L23,0l-3.1,3.1C17.8,1.2,15.1,0,12,0C6.1,0,1.1,4.3,0.2,10h4.1c0.9-3.4,4-6,7.7-6c2,0,3.7,0.7,5.1,1.9
	L14,9L24,11z"/>
<path class="st0" d="M0,13l1,11l3.1-3.1C6.2,22.8,8.9,24,12,24c5.9,0,10.9-4.3,11.8-10h-4.1c-0.9,3.4-4,6-7.7,6
	c-2,0-3.7-0.7-5.1-1.9L10,15L0,13z"/>
</svg>
