<?xml version="1.0" encoding="utf-8"?>
<!-- Generator: Adobe Illustrator 21.0.0, SVG Export Plug-In . SVG Version: 6.00 Build 0)  -->
<svg version="1.1" id="icons" xmlns="http://www.w3.org/2000/svg" xmlns:xlink="http://www.w3.org/1999/xlink" x="0px" y="0px"
	 viewBox="0 0 384 384" style="enable-background:new 0 0 384 384;" xml:space="preserve">
<style type="text/css">
	.st0{fill:#FFFFFF;}
</style>
<path id="history" class="st0" d="M384,20L244,0l20,140l43.6-43.6c22.3,26.8,34.4,60.3,34.4,95.6c0,40.1-15.6,77.7-43.9,106.1
	c-28.3,28.3-66,43.9-106.1,43.9s-77.7-15.6-106.1-43.9C57.6,269.7,42,232.1,42,192c0-40.1,15.6-77.7,43.9-106.1
	C109,62.9,138.3,48.2,170,43.6V1.3C74.3,12.2,0,93.4,0,192c0,106,86,192,192,192s192-86,192-192c0-47.9-17.6-91.7-46.6-125.4L384,20
	z"/>
</svg>
