<?xml version="1.0" encoding="utf-8"?>
<!-- Generator: Adobe Illustrator 21.0.0, SVG Export Plug-In . SVG Version: 6.00 Build 0)  -->
<svg version="1.1" id="icons" xmlns="http://www.w3.org/2000/svg" xmlns:xlink="http://www.w3.org/1999/xlink" x="0px" y="0px"
	 viewBox="0 0 384 384" style="enable-background:new 0 0 384 384;" xml:space="preserve">
<style type="text/css">
	.st0{fill:#FFFFFF;}
</style>
<path id="lock" class="st0" d="M312.1,159.5c-0.1-7.1-0.5-14.9-1.3-23.1c-4.1-43.9-16.7-78-37.6-101.4C252.7,12.1,225.4,0.5,192,0.5
	S131.3,12.1,110.8,35C89.9,58.4,77.3,92.5,73.2,136.4c-0.8,8.3-1.1,16.1-1.3,23.1H22v224h340v-224H312.1z M142.1,63
	c12.3-13.8,28.6-20.5,49.9-20.5c21.2,0,37.5,6.7,49.8,20.4c21.4,23.9,27.5,65.9,28.3,96.6H113.8C114.6,128.9,120.6,87,142.1,63z
	 M320,341.5H64v-140h256V341.5z"/>
</svg>
