<?xml version="1.0" encoding="utf-8"?>
<!-- Generator: Adobe Illustrator 23.0.1, SVG Export Plug-In . SVG Version: 6.00 Build 0)  -->
<svg version="1.1" xmlns="http://www.w3.org/2000/svg" xmlns:xlink="http://www.w3.org/1999/xlink" x="0px" y="0px"
	 viewBox="0 0 384 384" style="enable-background:new 0 0 384 384;" xml:space="preserve">
<style type="text/css">
	.st0{fill:#FFFFFF;}
</style>
<g id="Layer_1">
</g>
<g id="Layer_1_copy">
	<g>
		<path class="st0" d="M192,27c44.3,0,86,17.3,117.4,48.6C340.7,107,358,148.7,358,193s-17.3,86-48.6,117.4
			C278,341.7,236.3,359,192,359s-86-17.3-117.4-48.6C43.3,279,26,237.3,26,193s17.3-86,48.6-117.4C106,44.3,147.7,27,192,27 M192,1
			C86,1,0,87,0,193s86,192,192,192s192-86,192-192S298,1,192,1L192,1z"/>
	</g>
	<g>
		<g>
			<polygon class="st0" points="170.8,261.4 107,200 125,181.2 170.4,225 268.8,126.6 287.2,145 			"/>
		</g>
	</g>
</g>
<g id="Layer_4">
</g>
<g id="Layer_2">
</g>
</svg>
