<?xml version="1.0" encoding="utf-8"?>
<!-- Generator: Adobe Illustrator 23.0.1, SVG Export Plug-In . SVG Version: 6.00 Build 0)  -->
<svg version="1.1" xmlns="http://www.w3.org/2000/svg" xmlns:xlink="http://www.w3.org/1999/xlink" x="0px" y="0px"
	 viewBox="0 0 384 384" style="enable-background:new 0 0 384 384;" xml:space="preserve">
<style type="text/css">
	.st0{fill:#FFFFFF;}
</style>
<g id="Layer_1">
	<path class="st0" d="M192,26c44.3,0,86,17.3,117.4,48.6C340.7,106,358,147.7,358,192s-17.3,86-48.6,117.4
		C278,340.7,236.3,358,192,358s-86-17.3-117.4-48.6C43.3,278,26,236.3,26,192s17.3-86,48.6-117.4C106,43.3,147.7,26,192,26 M192,0
		C86,0,0,86,0,192s86,192,192,192s192-86,192-192S298,0,192,0L192,0z"/>
	<rect x="179" y="110" transform="matrix(-1 -1.224647e-16 1.224647e-16 -1 384 246)" class="st0" width="26" height="26"/>
	<rect x="179" y="152" transform="matrix(-1 -1.224647e-16 1.224647e-16 -1 384 426)" class="st0" width="26" height="122"/>
</g>
<g id="Layer_1_copy">
</g>
<g id="Layer_4">
</g>
<g id="Layer_2">
</g>
</svg>
