<?xml version="1.0" encoding="utf-8"?>
<!-- Generator: Adobe Illustrator 21.0.0, SVG Export Plug-In . SVG Version: 6.00 Build 0)  -->
<svg version="1.1" id="icons" xmlns="http://www.w3.org/2000/svg" xmlns:xlink="http://www.w3.org/1999/xlink" x="0px" y="0px"
	 viewBox="0 0 384 384" style="enable-background:new 0 0 384 384;" xml:space="preserve">
<style type="text/css">
	.st0{fill:#FFFFFF;}
</style>
<g id="settings">
	<path class="st0" d="M384,213.3v-42.7h-65.9c-3.1-18.9-10.4-37-21.3-52.7l46.5-46.5l-30.5-30.3L266,87.7
		c-15.7-11-33.8-18.3-52.7-21.3V0h-42.7v65.9c-18.9,3.1-37,10.4-52.7,21.3L71.3,41.2L41.2,71.3L87.7,118
		c-11,15.7-18.3,33.8-21.3,52.7H0v42.7h65.9c3.1,18.9,10.4,37,21.3,52.7l-46.1,46.7l30.1,30.1l46.5-46.5
		c15.7,11,33.8,18.3,52.7,21.3V384h42.7v-65.9c18.9-3.1,37-10.4,52.7-21.3l46.5,46.5l30.1-30.1l-46.5-46.5
		c11-15.7,18.3-33.8,21.3-52.7H384V213.3z M102.6,192c0-49.4,40-89.4,89.4-89.4s89.4,40,89.4,89.4s-40,89.4-89.4,89.4
		C142.7,281.3,102.7,241.3,102.6,192z"/>
	<circle class="st0" cx="192" cy="192" r="41"/>
</g>
</svg>
