<svg width="512" height="512" viewBox="0 0 512 512" fill="none" xmlns="http://www.w3.org/2000/svg">
<g clip-path="url(#clip0_1397_4507)">
<rect width="512" height="512" rx="115" fill="#0C0C3A"/>
<path fill-rule="evenodd" clip-rule="evenodd" d="M286.571 80H327.158C341.059 79.9997 352.756 79.9994 362.33 80.79C372.345 81.617 381.885 83.4143 390.946 88.0805C404.749 95.1883 415.972 106.53 423.005 120.48C427.622 129.638 429.4 139.279 430.218 149.4C431.001 159.076 431 170.897 431 184.947V223.852C431 237.902 431.001 249.723 430.218 259.399C429.4 269.521 427.622 279.162 423.005 288.32C415.972 302.269 404.749 313.611 390.946 320.719C381.885 325.385 372.345 327.182 362.33 328.009C352.756 328.8 341.059 328.8 327.157 328.799H205.955C197.442 328.799 189.759 323.637 186.465 315.703C183.171 307.769 184.908 298.613 190.872 292.473L290.961 189.435L321.127 219.364L256.325 286.076H326.311C341.283 286.076 351.24 286.059 358.888 285.428C366.288 284.817 369.646 283.738 371.755 282.652C377.603 279.64 382.358 274.835 385.338 268.924C386.413 266.792 387.48 263.4 388.085 255.92C388.71 248.191 388.726 238.128 388.726 222.997V185.802C388.726 170.671 388.71 160.608 388.085 152.879C387.48 145.4 386.413 142.007 385.338 139.875C382.358 133.965 377.603 129.159 371.755 126.147C369.646 125.061 366.288 123.982 358.888 123.371C351.24 122.74 341.283 122.723 326.311 122.723H287.425C272.289 122.723 262.215 122.74 254.483 123.381C246.996 124.003 243.611 125.1 241.495 126.199C235.611 129.257 230.846 134.132 227.893 140.115C226.831 142.267 225.787 145.701 225.263 153.275C224.723 161.096 224.829 171.276 225.013 186.572L225.225 204.139L182.955 204.66L182.733 186.231C182.561 172.024 182.416 160.078 183.092 150.298C183.799 140.074 185.485 130.322 190.064 121.045C197.034 106.924 208.28 95.4193 222.166 88.2041C231.289 83.4635 240.917 81.6404 251.024 80.8017C260.692 79.9994 272.513 79.9997 286.571 80Z" fill="url(#paint0_linear_1397_4507)"/>
<path fill-rule="evenodd" clip-rule="evenodd" d="M286.571 80H327.158C341.059 79.9997 352.756 79.9994 362.33 80.79C372.345 81.617 381.885 83.4143 390.946 88.0805C404.749 95.1883 415.972 106.53 423.005 120.48C427.622 129.638 429.4 139.279 430.218 149.4C431.001 159.076 431 170.897 431 184.947V223.852C431 237.902 431.001 249.723 430.218 259.399C429.4 269.521 427.622 279.162 423.005 288.32C415.972 302.269 404.749 313.611 390.946 320.719C381.885 325.385 372.345 327.182 362.33 328.009C352.756 328.8 341.059 328.8 327.157 328.799H205.955C197.442 328.799 189.759 323.637 186.465 315.703C183.171 307.769 184.908 298.613 190.872 292.473L290.961 189.435L321.127 219.364L256.325 286.076H326.311C341.283 286.076 351.24 286.059 358.888 285.428C366.288 284.817 369.646 283.738 371.755 282.652C377.603 279.64 382.358 274.835 385.338 268.924C386.413 266.792 387.48 263.4 388.085 255.92C388.71 248.191 388.726 238.128 388.726 222.997V185.802C388.726 170.671 388.71 160.608 388.085 152.879C387.48 145.4 386.413 142.007 385.338 139.875C382.358 133.965 377.603 129.159 371.755 126.147C369.646 125.061 366.288 123.982 358.888 123.371C351.24 122.74 341.283 122.723 326.311 122.723H287.425C272.289 122.723 262.215 122.74 254.483 123.381C246.996 124.003 243.611 125.1 241.495 126.199C235.611 129.257 230.846 134.132 227.893 140.115C226.831 142.267 225.787 145.701 225.263 153.275C224.723 161.096 224.829 171.276 225.013 186.572L225.225 204.139L182.955 204.66L182.733 186.231C182.561 172.024 182.416 160.078 183.092 150.298C183.799 140.074 185.485 130.322 190.064 121.045C197.034 106.924 208.28 95.4193 222.166 88.2041C231.289 83.4635 240.917 81.6404 251.024 80.8017C260.692 79.9994 272.513 79.9997 286.571 80Z" fill="url(#paint1_radial_1397_4507)"/>
<path fill-rule="evenodd" clip-rule="evenodd" d="M286.571 80H327.158C341.059 79.9997 352.756 79.9994 362.33 80.79C372.345 81.617 381.885 83.4143 390.946 88.0805C404.749 95.1883 415.972 106.53 423.005 120.48C427.622 129.638 429.4 139.279 430.218 149.4C431.001 159.076 431 170.897 431 184.947V223.852C431 237.902 431.001 249.723 430.218 259.399C429.4 269.521 427.622 279.162 423.005 288.32C415.972 302.269 404.749 313.611 390.946 320.719C381.885 325.385 372.345 327.182 362.33 328.009C352.756 328.8 341.059 328.8 327.157 328.799H205.955C197.442 328.799 189.759 323.637 186.465 315.703C183.171 307.769 184.908 298.613 190.872 292.473L290.961 189.435L321.127 219.364L256.325 286.076H326.311C341.283 286.076 351.24 286.059 358.888 285.428C366.288 284.817 369.646 283.738 371.755 282.652C377.603 279.64 382.358 274.835 385.338 268.924C386.413 266.792 387.48 263.4 388.085 255.92C388.71 248.191 388.726 238.128 388.726 222.997V185.802C388.726 170.671 388.71 160.608 388.085 152.879C387.48 145.4 386.413 142.007 385.338 139.875C382.358 133.965 377.603 129.159 371.755 126.147C369.646 125.061 366.288 123.982 358.888 123.371C351.24 122.74 341.283 122.723 326.311 122.723H287.425C272.289 122.723 262.215 122.74 254.483 123.381C246.996 124.003 243.611 125.1 241.495 126.199C235.611 129.257 230.846 134.132 227.893 140.115C226.831 142.267 225.787 145.701 225.263 153.275C224.723 161.096 224.829 171.276 225.013 186.572L225.225 204.139L182.955 204.66L182.733 186.231C182.561 172.024 182.416 160.078 183.092 150.298C183.799 140.074 185.485 130.322 190.064 121.045C197.034 106.924 208.28 95.4193 222.166 88.2041C231.289 83.4635 240.917 81.6404 251.024 80.8017C260.692 79.9994 272.513 79.9997 286.571 80Z" fill="url(#paint2_radial_1397_4507)"/>
<path fill-rule="evenodd" clip-rule="evenodd" d="M286.571 80H327.158C341.059 79.9997 352.756 79.9994 362.33 80.79C372.345 81.617 381.885 83.4143 390.946 88.0805C404.749 95.1883 415.972 106.53 423.005 120.48C427.622 129.638 429.4 139.279 430.218 149.4C431.001 159.076 431 170.897 431 184.947V223.852C431 237.902 431.001 249.723 430.218 259.399C429.4 269.521 427.622 279.162 423.005 288.32C415.972 302.269 404.749 313.611 390.946 320.719C381.885 325.385 372.345 327.182 362.33 328.009C352.756 328.8 341.059 328.8 327.157 328.799H205.955C197.442 328.799 189.759 323.637 186.465 315.703C183.171 307.769 184.908 298.613 190.872 292.473L290.961 189.435L321.127 219.364L256.325 286.076H326.311C341.283 286.076 351.24 286.059 358.888 285.428C366.288 284.817 369.646 283.738 371.755 282.652C377.603 279.64 382.358 274.835 385.338 268.924C386.413 266.792 387.48 263.4 388.085 255.92C388.71 248.191 388.726 238.128 388.726 222.997V185.802C388.726 170.671 388.71 160.608 388.085 152.879C387.48 145.4 386.413 142.007 385.338 139.875C382.358 133.965 377.603 129.159 371.755 126.147C369.646 125.061 366.288 123.982 358.888 123.371C351.24 122.74 341.283 122.723 326.311 122.723H287.425C272.289 122.723 262.215 122.74 254.483 123.381C246.996 124.003 243.611 125.1 241.495 126.199C235.611 129.257 230.846 134.132 227.893 140.115C226.831 142.267 225.787 145.701 225.263 153.275C224.723 161.096 224.829 171.276 225.013 186.572L225.225 204.139L182.955 204.66L182.733 186.231C182.561 172.024 182.416 160.078 183.092 150.298C183.799 140.074 185.485 130.322 190.064 121.045C197.034 106.924 208.28 95.4193 222.166 88.2041C231.289 83.4635 240.917 81.6404 251.024 80.8017C260.692 79.9994 272.513 79.9997 286.571 80Z" fill="url(#paint3_radial_1397_4507)"/>
<path fill-rule="evenodd" clip-rule="evenodd" d="M153.112 388.466C160.76 389.098 170.717 389.114 185.689 389.114H225.228C238.879 389.114 247.959 389.1 254.952 388.573C261.73 388.061 264.838 387.156 266.785 386.253C273.548 383.118 278.974 377.634 282.077 370.799C282.97 368.831 283.866 365.69 284.372 358.84C284.894 351.772 284.908 342.596 284.908 328.799H327.181L327.182 329.579C327.182 342.391 327.182 353.172 326.528 362.021C325.845 371.266 324.364 380.102 320.5 388.612C313.178 404.744 300.373 417.685 284.411 425.085C275.99 428.989 267.248 430.487 258.099 431.177C249.344 431.838 238.677 431.838 225.999 431.837L184.842 431.837C170.94 431.838 159.244 431.838 149.67 431.047C139.655 430.22 130.115 428.423 121.054 423.757C107.251 416.649 96.0284 405.308 88.9954 391.358C84.3783 382.2 82.5999 372.559 81.7816 362.437C80.9994 352.761 80.9997 340.94 81 326.89V287.985C80.9997 273.935 80.9994 262.115 81.7816 252.438C82.5999 242.317 84.3783 232.676 88.9954 223.518C96.0284 209.568 107.251 198.226 121.054 191.119C130.115 186.452 139.655 184.655 149.67 183.828C159.244 183.038 170.941 183.038 184.843 183.038H306.045C317.718 183.038 327.181 192.602 327.181 204.4C327.181 216.197 317.718 225.761 306.045 225.761H185.689C170.717 225.761 160.76 225.778 153.112 226.409C145.712 227.02 142.354 228.099 140.245 229.185C134.397 232.197 129.642 237.003 126.661 242.914C125.587 245.045 124.519 248.438 123.915 255.917C123.29 263.646 123.274 273.71 123.274 288.841V326.035C123.274 341.166 123.29 351.229 123.915 358.958C124.519 366.438 125.587 369.831 126.661 371.962C129.642 377.873 134.397 382.679 140.245 385.69C142.354 386.776 145.712 387.855 153.112 388.466Z" fill="url(#paint4_linear_1397_4507)"/>
<path fill-rule="evenodd" clip-rule="evenodd" d="M153.112 388.466C160.76 389.098 170.717 389.114 185.689 389.114H225.228C238.879 389.114 247.959 389.1 254.952 388.573C261.73 388.061 264.838 387.156 266.785 386.253C273.548 383.118 278.974 377.634 282.077 370.799C282.97 368.831 283.866 365.69 284.372 358.84C284.894 351.772 284.908 342.596 284.908 328.799H327.181L327.182 329.579C327.182 342.391 327.182 353.172 326.528 362.021C325.845 371.266 324.364 380.102 320.5 388.612C313.178 404.744 300.373 417.685 284.411 425.085C275.99 428.989 267.248 430.487 258.099 431.177C249.344 431.838 238.677 431.838 225.999 431.837L184.842 431.837C170.94 431.838 159.244 431.838 149.67 431.047C139.655 430.22 130.115 428.423 121.054 423.757C107.251 416.649 96.0284 405.308 88.9954 391.358C84.3783 382.2 82.5999 372.559 81.7816 362.437C80.9994 352.761 80.9997 340.94 81 326.89V287.985C80.9997 273.935 80.9994 262.115 81.7816 252.438C82.5999 242.317 84.3783 232.676 88.9954 223.518C96.0284 209.568 107.251 198.226 121.054 191.119C130.115 186.452 139.655 184.655 149.67 183.828C159.244 183.038 170.941 183.038 184.843 183.038H306.045C317.718 183.038 327.181 192.602 327.181 204.4C327.181 216.197 317.718 225.761 306.045 225.761H185.689C170.717 225.761 160.76 225.778 153.112 226.409C145.712 227.02 142.354 228.099 140.245 229.185C134.397 232.197 129.642 237.003 126.661 242.914C125.587 245.045 124.519 248.438 123.915 255.917C123.29 263.646 123.274 273.71 123.274 288.841V326.035C123.274 341.166 123.29 351.229 123.915 358.958C124.519 366.438 125.587 369.831 126.661 371.962C129.642 377.873 134.397 382.679 140.245 385.69C142.354 386.776 145.712 387.855 153.112 388.466Z" fill="url(#paint5_radial_1397_4507)"/>
</g>
<defs>
<linearGradient id="paint0_linear_1397_4507" x1="247.767" y1="326.867" x2="250.596" y2="79.6832" gradientUnits="userSpaceOnUse">
<stop offset="0.43118" stop-color="#498FFD"/>
<stop offset="1" stop-color="#16D1D6"/>
</linearGradient>
<radialGradient id="paint1_radial_1397_4507" cx="0" cy="0" r="1" gradientUnits="userSpaceOnUse" gradientTransform="translate(179.657 155.329) rotate(-15.5725) scale(159.744 159.494)">
<stop stop-color="#18CFD7"/>
<stop offset="1" stop-color="#18CFD7" stop-opacity="0"/>
</radialGradient>
<radialGradient id="paint2_radial_1397_4507" cx="0" cy="0" r="1" gradientUnits="userSpaceOnUse" gradientTransform="translate(272.994 225.963) rotate(152.354) scale(59.8025 59.7092)">
<stop stop-color="#4990FE"/>
<stop offset="0.353962" stop-color="#4990FE"/>
<stop offset="1" stop-color="#4990FE" stop-opacity="0"/>
</radialGradient>
<radialGradient id="paint3_radial_1397_4507" cx="0" cy="0" r="1" gradientUnits="userSpaceOnUse" gradientTransform="translate(199.838 306.686) rotate(-45.9392) scale(108.824 108.654)">
<stop stop-color="#4990FE"/>
<stop offset="0.405688" stop-color="#4990FE"/>
<stop offset="1" stop-color="#4990FE" stop-opacity="0"/>
</radialGradient>
<linearGradient id="paint4_linear_1397_4507" x1="328.491" y1="432.817" x2="329.401" y2="180.559" gradientUnits="userSpaceOnUse">
<stop stop-color="#2950FF"/>
<stop offset="0.821717" stop-color="#498FFD"/>
</linearGradient>
<radialGradient id="paint5_radial_1397_4507" cx="0" cy="0" r="1" gradientUnits="userSpaceOnUse" gradientTransform="translate(328.491 326.867) rotate(129.289) scale(107.559 106.428)">
<stop offset="0.337169" stop-color="#2950FF"/>
<stop offset="0.792226" stop-color="#2950FF" stop-opacity="0"/>
</radialGradient>
<clipPath id="clip0_1397_4507">
<rect width="512" height="512" fill="white"/>
</clipPath>
</defs>
</svg>
