<?xml version="1.0" encoding="utf-8"?>
<!-- Generator: Adobe Illustrator 23.0.1, SVG Export Plug-In . SVG Version: 6.00 Build 0)  -->
<svg version="1.1" id="Layer_1" xmlns="http://www.w3.org/2000/svg" xmlns:xlink="http://www.w3.org/1999/xlink" x="0px" y="0px"
	 viewBox="0 0 384 384" style="enable-background:new 0 0 384 384;" xml:space="preserve">
<style type="text/css">
	.st0{fill:#FFFFFF;}
</style>
<title>icons_5</title>
<g id="f31d9964-f67b-451c-9eb6-78b833647305">
	<path class="st0" d="M299.9,197.6c9.3-16.7,14.2-35.5,14.1-54.6c0-70-43.4-105-97-105s-97,35-97,105c-0.1,19.1,4.8,38,14.2,54.6
		C89.2,218.8,68.5,274.1,50,346l334-0.1C365.5,274,344.8,218.8,299.9,197.6z M178.1,94c11.6-11.6,27.6-14,38.9-14s27.3,2.4,38.9,14
		c13.3,13.2,16.1,34,16.1,49c0,34.7-24.7,63-55,63s-55-28.3-55-63C162,115.7,170.7,101.3,178.1,94z M128.8,256.5
		c10.1-14.3,21.1-22.1,36.1-25c31.4,22,73.1,22,104.5-0.1c14.9,2.9,25.9,10.8,35.9,25c8.9,12.6,16.3,29.3,22.7,47.5L106.1,304
		C112.5,285.8,119.9,269.1,128.8,256.5z"/>
	<path class="st0" d="M32.5,261H0v42h18.2C23,287,27.6,273.3,32.5,261z"/>
	<path class="st0" d="M83,182c-0.9-3.6-1.7-7.3-2.4-11H0v42h56.8C64.2,201.6,73,191.2,83,182z"/>
	<path class="st0" d="M88.8,81H0v42h79C80.4,108.6,83.7,94.5,88.8,81z"/>
</g>
</svg>
