<?xml version="1.0" encoding="utf-8"?>
<!-- Generator: Adobe Illustrator 22.0.1, SVG Export Plug-In . SVG Version: 6.00 Build 0)  -->
<svg version="1.1" id="Слой_1" xmlns="http://www.w3.org/2000/svg" xmlns:xlink="http://www.w3.org/1999/xlink" x="0px" y="0px"
	 viewBox="0 0 320 384" style="enable-background:new 0 0 320 384;" xml:space="preserve">
<style type="text/css">
	.st0{clip-path:url(#SVGID_2_);}
	.st1{clip-path:url(#SVGID_2_);fill:none;stroke:#000000;stroke-width:42;stroke-miterlimit:10;}
</style>
<g>
	<defs>
		<rect id="SVGID_1_" width="320" height="384"/>
	</defs>
	<clipPath id="SVGID_2_">
		<use xlink:href="#SVGID_1_"  style="overflow:visible;"/>
	</clipPath>
	<path class="st0" d="M159.9,44.5L278,85.8V232c0,0.9-0.4,9.2-14.7,26c-11,13-26.9,27.1-47.3,42c-20.6,15.1-41.6,27.8-56.1,36.1
		c-14.5-8.3-35.4-21-56-36.1c-20.3-14.9-36.2-29-47.2-42C42.4,241.2,42,232.9,42,232V85.8L159.9,44.5 M159.9,0L0,56v176
		c0,70.7,159.9,152,159.9,152S320,302.7,320,232V56L159.9,0z"/>
	<polyline class="st1" points="100.1,182.2 142.3,218.5 220.3,145.1 	"/>
</g>
</svg>
